<svg width="500" height="501" viewBox="0 0 500 501" fill="none" xmlns="http://www.w3.org/2000/svg">
<rect width="500" height="501" fill="black"/>
<path d="M45.3798 308.775L68.5272 282.646L50.4563 295.082L37.7056 306.551C34.4598 309.471 31.6139 312.806 29.2417 316.471L24.4994 323.797C14.3408 339.491 16.7463 360.186 30.234 373.131C51.0061 385.441 74.9244 391.409 99.0446 390.299L145.974 388.14L100.466 385.419C88.4192 384.699 77.3296 378.615 70.2482 368.843C70.2482 357.431 75.3222 346.611 84.0951 339.313L118.612 310.601C124.508 305.696 130.814 301.306 137.46 297.479L371 163L123.765 274.526C89.3818 290.036 58.8972 313.029 34.5366 341.826C33.4384 329.785 37.3621 317.825 45.3798 308.775Z" fill="white" stroke="white" stroke-width="5"/>
<path d="M444.418 167.765L444.793 168.85L445.86 169.272L450.217 171L445.86 172.728L444.793 173.15L444.418 174.235L443 178.341L441.582 174.235L441.207 173.15L440.14 172.728L435.782 171L440.14 169.272L441.207 168.85L441.582 167.765L443 163.658L444.418 167.765Z" fill="white" stroke="white" stroke-width="5"/>
<path d="M219.902 278.371L270.195 233.404H388.835V287.364L432.596 258.061C438.336 254.217 443.333 249.365 447.344 243.741L450.892 238.766C452.21 236.917 453.214 234.863 453.861 232.686L454.178 231.62C455.549 227.008 455.009 222.04 452.679 217.831C450.592 214.064 447.22 211.175 443.178 209.691L433.11 205.996L412.477 200H412.961C428.046 200 443.062 202.016 457.612 205.996L458.971 206.453C475.518 212.017 482.133 231.877 472.227 246.252C455.714 264.121 436.423 279.205 415.099 290.921L388.835 305.351V340.896L369.798 350.109C352.43 358.513 334.393 365.46 315.874 370.878L306.274 373.687C295.134 376.946 283.756 379.324 272.243 380.798L250.787 383.547C199.088 390.169 147.124 373.439 109 337.898L131.782 320.768L154.135 300.64C181.219 326.555 219.559 337.039 256.062 328.512L322.208 313.06V278.371H219.902Z" fill="white"/>
<path d="M388.835 287.364V233.404H270.195L219.902 278.371H322.208V313.06L256.062 328.512C219.559 337.039 181.219 326.555 154.135 300.64L131.782 320.768L109 337.898C147.124 373.439 199.088 390.169 250.787 383.547L272.243 380.798C283.756 379.324 295.134 376.946 306.274 373.687L315.874 370.878C334.393 365.46 352.43 358.513 369.798 350.109L388.835 340.896V305.351M388.835 287.364V305.351M388.835 287.364L432.596 258.061C438.336 254.217 443.333 249.365 447.344 243.741L450.892 238.766C452.21 236.917 453.214 234.863 453.861 232.686L454.178 231.62C455.55 227.008 455.009 222.04 452.679 217.831C450.593 214.064 447.22 211.175 443.178 209.691L433.11 205.996L412.477 200H412.961C428.046 200 443.062 202.016 457.612 205.996L458.971 206.453C475.518 212.017 482.133 231.877 472.227 246.252C455.714 264.121 436.423 279.205 415.099 290.921L388.835 305.351" stroke="white" stroke-width="5"/>
<path d="M304.293 173.178L214.714 174.087C171.885 174.521 138.978 212.147 144.252 254.652C122.787 264.115 102.234 275.527 82.8519 288.744L81.0102 290L79.0345 281.826C59.3566 200.413 119.071 121.345 202.762 118H377L304.293 173.178Z" fill="white" stroke="white" stroke-width="5"/>
<path d="M383.336 167.832L405.791 158.386C402.13 171.124 391.166 180.408 377.999 181.919L377.291 182L378.708 180.157C381.443 176.601 383.055 172.309 383.336 167.832Z" fill="white"/>
<path d="M383.336 167.832L405.791 158.386M383.336 167.832C375.805 168.71 369.397 162.387 370.174 154.845L370.316 153.476M383.336 167.832C383.055 172.309 381.443 176.601 378.708 180.157L377.291 182L377.999 181.919C391.166 180.408 402.13 171.124 405.791 158.386M405.791 158.386L406.237 158.066C425.266 144.431 440.92 126.621 452 106L437.607 109.614C418.986 114.289 401.795 123.456 387.537 136.313M376.432 166.538C370.395 171.111 364.015 175.211 357.347 178.802L357 178.989L365.205 172.12L374.705 165.679" stroke="white" stroke-width="5"/>
<path d="M370.254 153.543L387.4 136.357C374.21 134.958 361.474 141.639 355.129 153.287L354.844 153.809L357.07 153.196C361.402 152.002 365.991 152.123 370.254 153.543Z" fill="white" stroke="white" stroke-width="5"/>
<g filter="url(#filter0_d_314_122)">
<circle cx="416.5" cy="131.5" r="5.5" fill="white"/>
<circle cx="416.5" cy="131.5" r="3" stroke="white" stroke-width="5"/>
</g>
<path d="M103.062 357.791L103.449 358.873L104.522 359.283L109.007 361L104.522 362.717L103.449 363.127L103.062 364.209L101.5 368.577L99.9375 364.209L99.5508 363.127L98.4775 362.717L93.9922 361L98.4775 359.283L99.5508 358.873L99.9375 357.791L101.5 353.422L103.062 357.791Z" fill="white" stroke="white" stroke-width="5"/>
<defs>
<filter id="filter0_d_314_122" x="407" y="126" width="19" height="19" filterUnits="userSpaceOnUse" color-interpolation-filters="sRGB">
<feFlood flood-opacity="0" result="BackgroundImageFix"/>
<feColorMatrix in="SourceAlpha" type="matrix" values="0 0 0 0 0 0 0 0 0 0 0 0 0 0 0 0 0 0 127 0" result="hardAlpha"/>
<feOffset dy="4"/>
<feGaussianBlur stdDeviation="2"/>
<feComposite in2="hardAlpha" operator="out"/>
<feColorMatrix type="matrix" values="0 0 0 0 0 0 0 0 0 0 0 0 0 0 0 0 0 0 0.25 0"/>
<feBlend mode="normal" in2="BackgroundImageFix" result="effect1_dropShadow_314_122"/>
<feBlend mode="normal" in="SourceGraphic" in2="effect1_dropShadow_314_122" result="shape"/>
</filter>
</defs>
</svg>
