<svg width="489" height="298" viewBox="0 0 489 298" fill="none" xmlns="http://www.w3.org/2000/svg">
<path d="M110.623 0.106755C124.251 -0.614975 139.507 2.10564 146.345 14.9706C147.781 17.6724 149.396 22.258 151.26 24.3628C151.513 24.3734 151.766 24.384 152.02 24.3947C161.886 16.6287 168.777 12.7619 181.458 12.4757C226.551 11.3523 216.624 63.2946 205.407 90.4196C204.63 92.5887 197.559 101.864 197.865 103.405C199.605 107.127 211.488 120.036 214.343 121.352C231.531 129.28 258.276 128.084 275.916 122.849C290.867 118.413 303.52 113.205 318.722 109.94C324.049 108.796 329.884 107.132 334.399 104.167C337.486 102.163 339.136 97.9603 341.506 95.523C352.286 84.4471 362.031 63.7055 373.213 53.9222C377.258 50.4277 382.091 47.9705 387.297 46.7634C394.047 45.2189 405.838 45.5805 411.77 49.2733C416.691 52.3386 419.231 59.4162 419.986 65.1315C422.729 85.8316 421.752 108.2 410.115 126.276C406.419 132.021 400.908 136.829 397.168 142.586C404.464 155.384 418.554 160.648 431.317 165.608C436.751 167.716 442.935 171.559 448.3 174.169C461.838 180.758 475.691 188.13 483.06 201.941C491.077 217.077 493.201 243.35 475.11 252.37C460.605 259.602 448.45 257.881 433.65 253.39C431.376 252.612 429.551 251.964 427.137 250.877C422.274 248.774 413.396 242.185 408.451 241.73C405.529 241.46 392.634 247.807 389.567 249.083C374.205 255.464 358.005 254.903 341.792 253.361C331.844 252.414 322.651 249.765 313.018 254.507C309.829 256.001 305.15 257.519 301.739 258.79C272.259 269.797 239.912 269.845 209.118 265.451C191.529 262.913 174.849 267.428 158.431 273.64C154.094 275.279 149.742 279.688 146.502 283.038C139.6 290.163 131.084 295.476 121.222 297.279C104.112 300.102 80.2825 295.123 79.9051 273.631C79.8228 268.951 80.1862 264.04 79.3235 259.505C71.134 259.119 61.7367 260.332 54.0407 256.895C37.2794 249.402 34.7474 224.072 42.294 209.323C43.7445 206.49 47.3018 202.826 49.3194 200.355C51.9747 197.102 57.1741 193.201 58.8167 189.426C57.2418 187.439 53.9803 188.033 51.4333 187.879C15.6951 185.694 -6.18573 157.414 1.55383 122.327C5.02106 106.607 19.8809 100.948 34.2147 97.9463C46.5218 95.6815 47.5383 92.0289 51.5944 81.3349C56.9317 67.2614 68.7418 63.8002 80.0464 57.2911L80.5234 57.0122C85.6638 43.1122 79.0796 22.3556 88.7168 8.97296C93.2906 2.62145 103.24 1.10789 110.623 0.106755Z" fill="#FEFEFE"/>
<path d="M114.332 15C120.095 15.1453 126.498 17.6769 130.161 22.0779C140.56 34.5704 140.816 49.9113 136.4 64.6019C146.548 60.0726 148.846 59.0197 155.459 49.8432C159.716 43.9366 166.134 36.753 171.655 32.018C174.761 29.4985 181.367 27.033 185.412 28.335C198.914 32.6809 201.607 44.0747 198.547 56.0106C192.752 78.6099 191.83 88.088 171.154 100.671C173.644 107.109 175.192 110.033 179.585 115.281C194.501 119.435 194.865 132.013 206.589 136.506C225.032 143.574 250.498 143.002 269.773 140.477C283.492 138.387 296.133 132.556 309.421 128.329C319.948 124.98 340.331 123.184 347.55 115.583C362.352 99.9984 372.464 79.3804 387.802 64.3711C391.255 60.9937 399.374 58.4437 402.493 63.7908C407.082 71.7502 406.173 84.1211 405.211 93.0122C403.136 111.099 387.072 129.303 372.841 139.548C384.877 158.766 390.148 160.325 404.993 175.16C407.861 174.639 410.221 173.871 412.972 174.678C419.757 176.667 425.332 181.359 431.503 184.594C446.014 192.139 462.383 198.159 470.647 213.439C476.557 224.369 475.077 235.106 462.814 240.353C445.42 247.793 430.632 231.905 415.68 225.865C408.905 223.133 402.372 224.784 396.294 227.714C374.113 239.981 361.787 242.265 336.206 237.635C331.544 236.79 323.976 234.647 319.692 235.675C312.472 237.399 302.733 240.932 295.784 243.694C279.063 250.332 264.469 252.62 246.63 253.142C238.935 253.364 231.472 252.963 223.986 252.109C215.909 251.191 194.75 246.648 187.704 248.671C177.855 251.491 154.653 256.125 146.29 260.813C137.504 265.737 128.026 282.484 113.031 282.991C107.567 283.155 102.284 281.031 98.4602 277.13C90.744 269.3 94.7609 261.885 98.7102 253.567C106.549 237.061 120.2 230.872 132.251 219.232L132.802 218.696C124.23 219.411 111.206 223.234 103.134 226.961C92.0912 232.137 81.3497 245.765 68.4283 244.915C60.7217 244.408 52.3037 233.01 53.7588 225.368C54.5634 221.144 58.061 215.674 61.0901 212.478C71.5144 201.486 85.3826 191.932 97.7513 182.962C94.4229 175.184 92.7875 173.852 88.3348 166.895C73.7383 171.94 60.9731 175.252 45.5826 170.893C35.4997 168.035 24.8477 160.701 19.9583 151.365C16.6072 144.964 13.5061 136.546 15.7784 129.542C21.4584 112.031 44.9056 113.891 57.2284 107.019C63.39 103.583 63.4359 87.9417 74.131 80.0997C82.6901 73.8237 84.3976 74.193 93.8949 69.5174C95.5792 64.6815 98.217 55.5442 98.6754 50.6161C100.226 33.9612 91.6008 18.8148 114.332 15Z" fill="black"/>
<path d="M396.345 68C399.152 82.3292 398.596 98.2277 390.344 110.785C381.624 124.044 372.009 129.904 361.172 139.745C372.381 151.662 380.45 164.87 393.519 175.064C395.867 176.895 399.051 180.742 401.036 183.107C401.824 183.121 411.516 182.782 411.086 182.612C419.517 185.941 426.686 190.941 434.808 195.287C447.206 201.915 465.913 209.89 466 226.581C466.034 232.807 458.038 235.259 452.892 235.21C440.205 234.27 429.276 224.168 418.009 219.091C414.772 217.623 405.592 217.821 401.49 217.293C379.406 228.204 367.313 237.042 341.271 231.664C338.199 231.024 323.216 227.763 321.627 228.117C302.518 232.347 285.946 242.24 266.046 244.585C251.996 246.111 237.833 246.296 223.746 245.142C204.521 243.422 194.473 237.589 175.062 244.619C164.999 248.263 151.91 249.992 141.992 255.269C132.381 260.118 121.875 279.479 108.394 275.453C100.937 273.229 100.111 267.522 103.243 261.141C112.104 243.088 128.02 232.507 143.913 221.344C140.18 217.908 136.484 214.357 132.402 211.358C118.517 213.485 102.165 218.228 90.6754 226.605C85.3362 230.501 79.6839 234.76 73.6538 237.536C67.5198 240.365 62.1274 233.97 61.0804 228.442C60.477 225.258 63.4097 221.94 65.2239 219.648C73.0953 209.318 83.909 203.519 94.2478 196.174C99.5919 192.375 103.748 188.955 109.549 185.626C105.614 183.78 102.462 178.736 102.489 174.41C117.244 171.367 168.08 137.266 177.398 124.198C183.523 122.31 188.401 127.416 187.179 133.326C191.458 136.285 199.235 141.993 203.953 143.676C230.003 152.966 272.481 152.244 297.097 140.331C302.427 137.328 335.174 129.246 342.16 127.892C361.187 121.821 378.44 77.255 396.345 68Z" fill="#FEFEFE"/>
<path d="M177.016 124.4C183.15 122.507 188.035 127.627 186.811 133.554L186.497 133.834C182.415 137.547 178.455 142.854 174.386 146.34C155.862 162.212 131.565 176.725 109.07 186C105.13 184.149 101.974 179.091 102 174.752C116.776 171.701 167.684 137.505 177.016 124.4Z" fill="#E3120D"/>
<path d="M297.115 140.215C302.387 137.267 334.779 129.33 341.69 128C347.167 134.561 348.409 133.857 347.893 143.373C344.763 148.275 338.058 153.571 333.503 157.225C323.845 164.976 313.054 158.857 302.702 155.945C298.778 151.567 296.441 146.161 297.115 140.215Z" fill="#CB7A3F"/>
<path d="M115.04 22C117.974 22.9901 120.592 23.5635 122.95 25.6284C133.093 34.5098 133.531 49.0414 129.512 61.0228C128.281 64.6933 126.106 67.3674 125.3 71.2039C126.15 71.9835 128.536 72.3354 129.873 72.6601C135.439 74.4438 136.511 72.0368 141.33 70.4655C159.256 64.6202 164.537 44.932 179.576 35.7999C181.055 34.9023 185.23 35.9616 186.962 36.3381C189.478 39.2943 191.545 41.8586 193 45.5238C192.316 50.6853 191.076 55.2743 189.954 60.2514C187.121 72.8139 184.8 81.6784 174.028 89.8034C170.473 92.4843 166.875 94.494 162.94 96.6474C163.506 98.7564 164.067 101.013 164.728 103.081C167.206 110.853 171.336 118.518 177.668 123.849C168.326 136.901 117.363 170.961 102.57 174C99.313 169.548 93.0662 161.979 91.5506 157.16C74.614 165.328 60.49 168.29 42.2025 162.294C55.1156 158.432 70.6597 151.406 78.1469 139.736C73.4026 142.056 66.8109 146.902 61.7063 149.693C55.1078 153.303 49.7091 155.355 42.9387 158.384C41.9603 159.831 42.1855 159.173 42.5658 161.35C39.8902 162.284 36.4958 158.442 34.5976 156.898C28.6399 152.049 25.8752 146.846 23 139.894C24.5068 140.899 26.2447 141.78 27.8485 142.646C32.8587 141.292 41.0986 139.125 40.2554 132.689C39.2169 124.76 29.9138 125.587 24.7854 126.321C37.3027 119.36 51.6606 118.395 63.1574 111.758C70.2702 107.651 70.3051 91.155 79.5787 84.894C86.6973 80.0877 92.3382 78.5537 99.6027 74.6896C102.152 69.1216 105.414 55.4795 106.489 49.0143C107.408 43.4797 104.627 30.6259 107.599 25.1102C108.473 23.4871 113.133 22.5047 115.04 22Z" fill="#FEFEFE"/>
<path d="M129.753 73.1169C135.329 74.8961 136.404 72.4952 141.232 70.9279C159.191 65.0976 164.483 45.4596 179.55 36.3509C181.032 35.4555 185.216 36.5121 186.95 36.8876C189.471 39.8363 191.542 42.3941 193 46.0499C192.314 51.1982 191.072 55.7755 189.948 60.7399C187.11 73.2704 184.784 82.1122 173.992 90.2165C170.43 92.8905 166.825 94.8951 162.882 97.0431C163.45 99.1466 164.012 101.397 164.674 103.46C161.139 105.054 158.057 103.624 153.358 106.546C147.293 110.318 140.102 114.315 134.4 118.538C127.243 124.105 122.372 129.946 113.823 133.604C104.332 137.664 91.7602 137.399 87.4975 126.209C83.2144 114.967 88.5418 100.889 98.1044 93.8844C106.306 87.8764 115.947 82.6523 124.08 76.3345C125.929 74.8951 128.767 75.2195 129.753 73.1169Z" fill="#CB7A3F"/>
<path d="M174.728 53C184.368 54.808 180.494 66.3852 178.686 72.9118C174.241 76.7703 170.038 81.3472 165.709 85.0956C161.983 88.3207 150.476 91.5244 145.437 92C132.812 90.5006 141.783 81.5638 146.852 77.24C157.071 68.5233 167.247 64.7213 174.728 53Z" fill="#AA5113"/>
<path d="M105.183 106C107.331 105.975 109.563 107.118 110.489 109.262C111.109 110.683 111.167 112.308 110.651 113.775C110.024 115.596 108.264 116.17 106.625 116.959C99.9396 117.636 98.9086 109.812 105.183 106Z" fill="black"/>
</svg>
