<svg width="235" height="137" viewBox="0 0 235 137" fill="none" xmlns="http://www.w3.org/2000/svg">
<path d="M48.5 0.5L53.5 2L57 4.5L59.5 9L60.5 15L60 23.5L62 25.5L64.5 25L69 22L73 16.5L80.5 9.5L85 7.5L89 9.5L91.5 11L92.5 14.5L91.5 20L90 29.5L86.5 35.5L84 38L81 40.5L79.5 43.5V46L83.5 52L91 59.5L98.5 64.5L107 65.5H116L132 65L147.5 60.5L155.5 57L165 55.5L173 51L179 43.5L184.5 36L190 28.5L193 25L196.5 24L198.5 27V31.5V39.5L196.5 46L193.5 51L188.5 56.5L184.5 59.5L181 63.5L184.5 68.5L188.5 73L197.5 81.5L203.5 83L208.5 85.5L217.5 90L229.5 98L234 105L233.5 109L232.5 111.5L229.5 113.5L224.5 114.5L216 111.5L206.5 105H201L195.5 106.5L186 111.5L179 113.5L169 113L159 110.5L146.5 113.5L135 118.5L116 120.5L100.5 118.5L90 117L79.5 119L68 123L62 126.5L57.5 131L50 135L44 133.5L42 127L46 119.5L53.5 112L61 105L59.5 102.5L51 103.5L42 107.5L35.5 112L28 115L23 113L21.5 109L23.5 102.5L31 95.5L38 90.5L40.5 88.5L42 85.5L40 80.5L35 75.5L29.5 77.5L24 78L12.5 76.5L4 71L0.5 62L2 57L6 52.5L14.5 50.5L24 47L26 40L30.5 34.5L37 30.5L41 27.5L43 23.5L44 12V4L45.5 2L48.5 0.5Z" fill="white"/>
<path d="M148 60L154.5 57.5L160.5 56L167 54.5L170.5 53.5L172.5 56.5L173.5 60.5L172.5 64.5L171 67L166 72L159.5 74.5L152 72.5L148.5 70L147 67.5L145.5 64.5L145 61.5L148 60Z" fill="#CB7B3E"/>
<path d="M145 62L146.5 66.5L146.898 67.4285C147.619 69.1105 148.787 70.5625 150.277 71.6261C151.088 72.2055 151.981 72.6603 152.926 72.9754L153.664 73.2214C155.211 73.7371 156.831 74 158.462 74H159.27C159.756 74 160.242 73.9655 160.723 73.8967C162.541 73.637 164.256 72.8949 165.69 71.7477L166 71.5L166.775 70.9187C168.902 69.3231 170.681 67.3089 172 65C172.971 62.7336 173.147 60.2052 172.498 57.8263L172 56L171 53" stroke="#CA7A3F" stroke-width="2" stroke-linecap="round"/>
<rect x="2" y="56" width="8" height="7" fill="black"/>
<path d="M52 31L57.5 27L60.5 25.5H63.5L70.5 20.5L77.5 13L83 8H86L88.5 9L92 13.5L91.5 20L89 30.5L87.5 34L84.5 37L81.5 40L79 43L73.5 44L67.5 46L60 52.5L53.5 57.5L47 61L41.5 60L37.5 57.5L35 50.5V45.5L37.5 42L52 31Z" fill="#C87D41"/>
<path d="M78.5 43.5C74.8911 43.5 71.3398 44.4055 68.1716 46.1337L67.5 46.5L64 49L60.5 52L56.5 55.5L55.4041 56.5959C54.4722 57.5278 53.4202 58.3313 52.2759 58.9852L51.8204 59.2455C50.9443 59.7461 50.0036 60.1241 49.0247 60.3688C47.3644 60.7839 45.6302 60.8067 43.9596 60.4355L43.2755 60.2834C42.427 60.0949 41.5979 59.8277 40.799 59.4853L39.3783 58.8764C38.7954 58.6266 38.249 58.2992 37.7539 57.9031C36.613 56.9904 35.7844 55.7452 35.383 54.3404L35.305 54.0676C35.1027 53.3593 35 52.6263 35 51.8897V49.5V47.3834C35 45.8293 35.46 44.31 36.3221 43.0169C36.7713 42.343 37.3219 41.7425 37.9543 41.2365L39.5 40L43 37.5L46.5 35L55.5 29L60.5 25" stroke="#CC7B42" stroke-width="2" stroke-linecap="round"/>
<path d="M3 55.5L3.47556 54.9293C4.79893 53.3413 6.5389 52.1537 8.5 51.5L12.5 50.5L17.5 49.5L20.6447 48.7138C21.2107 48.5723 21.7481 48.3346 22.2335 48.011L22.8513 47.5991C23.8813 46.9124 24.5 45.7564 24.5 44.5185C24.5 44.1745 24.5479 43.8322 24.6425 43.5014L25.0445 42.0941C25.3471 41.0352 25.7762 40.0167 26.3226 39.0605C27.1017 37.697 28.1095 36.4776 29.3019 35.4555L31 34C32.9858 32.3451 35.2361 31.0365 37.6565 30.1288L38 30C40.2051 29.0549 41.8417 27.1333 42.4235 24.8058L42.5 24.5L43 21.5C43.6647 18.509 44 15.4542 44 12.3902V9V5.26777C44 4.13589 44.4496 3.05036 45.25 2.25C46.0504 1.44964 47.1359 1 48.2678 1H49.9006C50.6303 1 51.3567 1.09728 52.0607 1.28928L52.3266 1.36181C54.9953 2.08963 57.2574 3.86339 58.6008 6.28143L59 7C59.9897 9.30926 60.5 11.7955 60.5 14.3079V15.5V21.0538C60.5 21.3493 60.4524 21.6429 60.3589 21.9233L60.2467 22.26C59.6645 24.0064 61.0886 25.7679 62.9182 25.5646C63.301 25.5221 63.6689 25.3925 63.9939 25.1857L66.7051 23.4604C68.2246 22.4934 69.5741 21.2823 70.6993 19.8759L73 17L78 12L80.1762 9.5518C81.3363 8.24671 82.9991 7.5 84.7452 7.5C85.5731 7.5 86.3924 7.66816 87.1533 7.99428L87.714 8.23457C88.8841 8.73605 89.902 9.53604 90.6659 10.5545C91.8389 12.1185 92.3325 14.0891 92.0352 16.0213L91.5 19.5L90.5 26L89.3656 30.1593C89.1225 31.0509 88.7918 31.9163 88.3785 32.743C87.4703 34.5593 86.1788 36.157 84.593 37.4256L82 39.5C79.2534 41.148 78.3928 44.7285 80.0904 47.4446L81.3665 49.4864C81.7866 50.1585 82.3031 50.7652 82.8995 51.2871L86 54L89.218 57.5398C90.4023 58.8426 91.7279 60.0095 93.1702 61.0191C95.0469 62.3328 97.1038 63.3679 99.2769 64.0923L99.5456 64.1819C102.165 65.0549 104.907 65.5 107.668 65.5H122.5H123.14C129.016 65.5 134.862 64.6581 140.5 63L150 59.5L154.673 57.6308C156.549 56.8802 158.517 56.3804 160.524 56.1443L160.629 56.1319C164.159 55.7165 167.542 54.472 170.5 52.5C173.496 49.8371 176.288 46.9539 178.854 43.8747L180 42.5L185 35.5L189 30L192.067 26.0572C192.354 25.6881 192.698 25.3678 193.087 25.1085L193.836 24.6094C194.844 23.9376 196.156 23.9376 197.164 24.6094C197.999 25.1658 198.5 26.1025 198.5 27.1056V36.6255C198.5 37.8726 198.388 39.1172 198.165 40.3442L197.889 41.8606C197.631 43.2818 197.204 44.6671 196.617 45.9871C195.877 47.6529 194.89 49.1977 193.689 50.5695L192 52.5L190.363 54.3003C188.126 56.7612 185.661 59.0045 183 61C181.405 62.0633 181.099 64.2821 182.346 65.7375L186 70L192.5 76.5L197.351 81.005C198.732 82.2873 200.547 83 202.432 83C203.785 83 205.113 83.3678 206.273 84.064L212.492 87.7951C213.828 88.5971 215.227 89.2909 216.674 89.8698C218.553 90.6212 220.349 91.5657 222.032 92.6881L224 94L229.531 98.3459C230.504 99.1105 231.35 100.025 232.036 101.054L232.475 101.713C233.47 103.204 234 104.956 234 106.748V108.376C234 110.039 233.262 111.615 231.984 112.68C231.336 113.22 230.575 113.606 229.757 113.811L228.4 114.15C227.47 114.382 226.516 114.5 225.557 114.5H225.164C223.078 114.5 221.015 114.062 219.108 113.215L217.5 112.5L212.5 109.5L209 107L208.576 106.758C206.56 105.606 204.279 105 201.957 105C199.69 105 197.46 105.578 195.478 106.679L194 107.5L188.5 110.5L186.68 111.41C185.232 112.134 183.701 112.678 182.121 113.029C180.711 113.342 179.271 113.5 177.827 113.5H174.11C171.046 113.5 167.991 113.165 165 112.5L160 111C158.029 110.671 156.007 110.819 154.105 111.431L143 115L135 118L134.731 118.077C130.265 119.353 125.644 120 121 120H112.5L104 119L96.5 118C91.9171 117.018 87.1549 117.282 82.7085 118.764L82 119L73.5 121.5L70.4541 122.312C67.5223 123.094 64.8038 124.525 62.5 126.5L56.2406 131.925C55.4168 132.639 54.5067 133.247 53.5317 133.734L51.9208 134.54C50.6683 135.166 49.2585 135.407 47.8691 135.234L47.721 135.215C46.5932 135.074 45.5217 134.641 44.6125 133.959C42.9679 132.726 42 130.79 42 128.734V128.511C42 127.515 42.2132 126.531 42.6254 125.624L43.5866 123.509C44.1932 122.175 44.9632 120.921 45.8789 119.776L48.5 116.5L54.1289 110.871C54.3759 110.624 54.6415 110.396 54.9233 110.19L59.5458 106.8C60.7932 105.885 60.8504 104.042 59.662 103.052C59.2343 102.695 58.6951 102.5 58.1382 102.5H57.175C56.727 102.5 56.281 102.56 55.8488 102.678L51 104L49.6692 104.409C46.2412 105.464 42.9842 107.011 40 109L34.5 112.5L33.3618 113.313C31.8258 114.41 29.9852 115 28.0975 115H27.1085C26.0574 115 25.0274 114.705 24.136 114.147C22.4962 113.123 21.5 111.325 21.5 109.392V109C21.5 106.423 22.4456 103.936 24.1575 102.01L25.5 100.5L30 96.5L34.5 93L39.4908 89.3704C39.8291 89.1243 40.1375 88.8396 40.4098 88.5219C41.9484 86.7268 42.1325 84.1368 40.8632 82.1421L38.2256 77.9974C36.961 76.0102 34.3989 75.3005 32.2922 76.3539C32.0976 76.4512 31.8964 76.5345 31.6901 76.6033L30.6295 76.9568C28.5567 77.6478 26.3861 78 24.2012 78H19C16.6855 78 14.3899 77.5837 12.2228 76.7711L11.5 76.5M3 55.5L2.87409 55.6574C1.66093 57.1738 1 59.058 1 61V64M3 55.5L7.67717 55.8898C8.53131 55.9609 9.33257 56.3326 9.93862 56.9386C10.6182 57.6182 11 58.5399 11 59.501V60.5423C11 61.169 10.8297 61.7839 10.5072 62.3213C9.88235 63.3627 8.75684 64 7.54226 64H1M11.5 76.5L8.5 74.5L5.5 72L4.28825 70.7882C3.435 69.935 2.72488 68.9498 2.18524 67.8705L1.67082 66.8416C1.22967 65.9593 1 64.9864 1 64M11.5 76.5C13.8217 74.51 16.4128 72.8578 19.1966 71.5925L20.5 71L21.6278 70.4361C22.874 69.813 24.0695 69.0932 25.2033 68.2833C26.3991 67.4292 27.5222 66.4778 28.5613 65.4387L29.5 64.5" stroke="black" stroke-width="2" stroke-linecap="round"/>
<path d="M60 36L66.5 29.5L74 24.5L79 20.5L81 22L81.5 25.5L81 28.5L77 34L72 38L65.5 40.5L60 40V36Z" fill="#A54F13"/>
<path d="M76 22.5L78.1104 20.8117C78.3664 20.6069 78.6678 20.4664 78.9892 20.4022C80.0998 20.18 81.18 20.9002 81.4022 22.0108L81.455 22.2748C81.4849 22.4246 81.5 22.5769 81.5 22.7297V25.5L81.1953 27.9374C81.0665 28.9678 80.724 29.9599 80.1898 30.8503C79.7336 31.6107 79.1455 32.2836 78.4531 32.8375L77 34L74.5 36L73.5676 36.746C72.5254 37.5797 71.3982 38.3009 70.2045 38.8978L69.8614 39.0693C69.2879 39.3561 68.6947 39.6018 68.0863 39.8046L67.6602 39.9466C66.5606 40.3131 65.4091 40.5 64.25 40.5H63.1441C62.7175 40.5 62.2937 40.4312 61.8889 40.2963L61.5691 40.1897C61.1948 40.0649 60.8548 39.8548 60.5758 39.5758C60.2013 39.2013 59.9532 38.7192 59.8661 38.1967L59.8081 37.8487C59.6148 36.6886 59.9936 35.5064 60.8253 34.6747L62.5 33L65 31L68.5 28L72 25.5L76 22.5Z" stroke="#A54D11" stroke-width="2" stroke-linecap="round"/>
<circle cx="46.5" cy="48.5" r="2.5" fill="black"/>
<path d="M50 73.5L39 79C39.9957 80.3276 40.8122 81.7804 41.4285 83.3212L41.5 83.5C46.4871 82.1701 51.3261 80.3369 55.9426 78.0287L61 75.5L61.556 75.1462C68.5029 70.7254 75.0136 65.6539 81 60L87 55L84 52.5L83 51.5L82 50.5L80.5 52L77.5 54.5L68.5 62L59 68.5L50 73.5Z" stroke="#DC1815" stroke-width="2" stroke-linecap="round"/>
<path d="M84 53.5L86.5 54.5L80.5 60.5L75.5 64.5L65 72.5L54.5 79L42.5 83L39.5 79L51.5 72.5L61 68L71 60L76.5 55.5L81.5 51L84 53.5Z" fill="#DC1914"/>
</svg>
